<?xml version="1.0" encoding="UTF-8"?>
<svg id="Layer_1" data-name="Layer 1" xmlns="http://www.w3.org/2000/svg" viewBox="0 0 1920 1080">
  <defs>
    <style>
      .cls-1, .cls-2 {
        stroke-width: 0px;
      }

      .cls-2 {
        fill: none;
      }
    </style>
  </defs>
  <polygon class="cls-1" points="512.26 633.21 377.26 711.16 309.75 672.19 444.75 594.24 512.26 633.21"/>
  <g>
    <polygon class="cls-1" points="444.75 438.33 309.75 516.28 242.25 477.31 377.26 399.36 444.75 438.33"/>
    <polygon class="cls-1" points="309.75 516.28 309.75 672.19 242.24 633.21 242.24 477.31 242.25 477.31 309.75 516.28"/>
    <polygon class="cls-1" points="512.26 477.31 512.26 633.21 444.75 594.24 444.75 438.33 512.26 477.31"/>
    <polygon class="cls-1" points="596.44 428.6 528.94 467.57 427.69 409.11 495.19 370.13 596.44 428.6"/>
    <polygon class="cls-1" points="596.46 428.6 596.46 545.51 528.94 584.5 528.94 467.57 596.44 428.6 596.46 428.6"/>
    <path class="cls-1" d="M854.35,477.96l-21.15,110.73-41.28,44.51h-97.82c-5.75,0-10.53-1.76-14.33-5.29-3.81-3.52-5.71-7.87-5.71-13.05,0-1.29.17-2.24.46-3.77l24.84-133.14h40.18l-23.07,122.22c0,2.01,1,3.02,3.02,3.02h68.24c2.72,0,4.31-1.26,4.78-3.78l23.18-121.46h38.64Z"/>
    <polygon class="cls-1" points="981.05 603.2 908.98 603.2 1017.94 485.86 1019.43 477.96 1010.59 477.96 1004.93 477.96 881.13 477.96 871.49 477.96 865.7 477.96 860.03 507.97 874.74 507.97 946.68 507.97 837.84 625.33 836.37 633.21 850.85 633.21 974.66 633.21 990.09 633.21 995.77 603.2 986.71 603.2 981.05 603.2"/>
    <polygon class="cls-1" points="1350.91 477.96 1341.27 477.96 1335.88 477.96 1335.61 477.96 1327.29 477.96 1327.02 477.96 1317.39 477.96 1312 477.96 1311.73 477.96 1294.99 566.83 1235.57 477.96 1228.26 477.96 1225.94 477.96 1220.28 477.96 1218.1 477.96 1211.81 477.96 1209.63 477.96 1202.18 477.96 1196.52 477.96 1196.83 477.96 1167.5 633.21 1181.54 633.21 1190.13 633.21 1205.76 633.21 1222.63 544.25 1282.51 633.21 1296.75 633.21 1305.34 633.21 1321.3 633.21 1350.64 477.96 1350.91 477.96"/>
    <path class="cls-1" d="M1506.26,483.24c-3.8-3.52-8.57-5.28-14.33-5.28h-106.74c-6.76,0-12.78,2.19-18.06,6.58-5.36,4.17-8.7,9.35-10.02,15.53l-.62,3.25c-.62,1.48-24.58,129.89-24.58,129.89h38.41l9.79-51.45h76.03l-9.78,51.45h39.46l25.68-133.14c.36-1.77.46-2.2.46-3.56,0-5.31-1.9-9.74-5.71-13.27ZM1462.14,551.74h-76.24l7.49-39.99c.38-2.52,1.99-3.78,4.77-3.78h68.24c2.1,0,3.15,1,3.15,3.02l-7.41,40.75Z"/>
    <path class="cls-1" d="M1677.29,500.06c.3-1.21.46-2.39.46-3.55,0-5.32-1.91-9.74-5.71-13.27s-8.59-5.29-14.33-5.29h-106.74c-6.76,0-12.78,2.19-18.07,6.57-5.35,4.18-9.24,9.31-10.56,15.5l-21.09,111.07c-.4,2.19-.47,4.14-.47,5.44,0,5.17,1.9,7.87,5.7,11.38,3.81,3.53,8.59,5.29,14.34,5.29h73.71l23.89-25.75-5.05,25.75h47.99l5.86-30v-.02h-44.83l44.37-47.84,10.55-55.28ZM1628.48,550.38l-9.25,49.03c-.37,2.52-1.97,3.79-4.76,3.79h-68.25c-2.02,0-3.02-1.02-3.02-3.03l2.69-17.59,13.28-70.84c.39-2.52,1.97-3.78,4.78-3.78h68.23c2.09,0,3.15,1.01,3.15,3.02l-6.86,39.4Z"/>
    <polygon class="cls-1" points="1146.21 477.96 1134.35 540.74 1058.02 540.74 1067.61 491.83 1069.88 477.96 1070.23 477.96 1060.6 477.96 1055.08 477.96 1054.94 477.96 1046.61 477.96 1046.47 477.96 1036.83 477.96 1031.5 477.96 1002.13 632.96 1001.65 633.21 1040.55 633.21 1052.37 570.64 1128.7 570.64 1116.88 633.21 1155.29 633.21 1185.17 477.96 1146.21 477.96"/>
    <rect class="cls-2" x="87.01" y="213.59" width="1745.99" height="652.82"/>
  </g>
</svg>