<?xml version="1.0" encoding="UTF-8"?>
<svg id="Layer_1" data-name="Layer 1" xmlns="http://www.w3.org/2000/svg" viewBox="0 0 1920 1080">
  <defs>
    <style>
      .cls-1 {
        fill: none;
      }

      .cls-1, .cls-2 {
        stroke-width: 0px;
      }

      .cls-2 {
        fill: #fff;
      }
    </style>
  </defs>
  <path class="cls-2" d="M546.23,440.93l-27.27,142.76-53.22,57.39h-126.11c-7.42,0-13.57-2.27-18.47-6.82-4.92-4.54-7.36-10.15-7.36-16.83,0-1.66.22-2.89.6-4.86l32.03-171.65h51.81l-29.74,157.57c0,2.59,1.29,3.9,3.9,3.9h87.98c3.51,0,5.56-1.63,6.17-4.87l29.89-156.6h49.81Z"/>
  <polygon class="cls-2" points="709.57 602.4 616.66 602.4 757.13 451.12 759.06 440.93 747.66 440.93 740.36 440.93 580.75 440.93 568.33 440.93 560.86 440.93 553.55 479.63 572.51 479.63 665.27 479.63 524.94 630.93 523.04 641.09 541.72 641.09 701.33 641.09 721.24 641.09 728.55 602.4 716.87 602.4 709.57 602.4"/>
  <polygon class="cls-2" points="1186.42 440.93 1173.99 440.93 1167.04 440.93 1166.7 440.93 1155.97 440.93 1155.63 440.93 1143.2 440.93 1136.25 440.93 1135.91 440.93 1114.32 555.51 1037.72 440.93 1028.3 440.93 1025.3 440.93 1018.01 440.93 1015.2 440.93 1007.08 440.93 1004.27 440.93 994.66 440.93 987.37 440.93 987.77 440.93 949.96 641.09 968.05 641.09 979.13 641.09 999.29 641.09 1021.03 526.4 1098.24 641.09 1116.6 641.09 1127.67 641.09 1148.25 641.09 1186.07 440.93 1186.42 440.93"/>
  <path class="cls-2" d="M1386.71,447.74c-4.9-4.54-11.05-6.81-18.47-6.81h-137.62c-8.71,0-16.48,2.82-23.28,8.48-6.91,5.38-11.21,12.06-12.92,20.03l-.8,4.19c-.8,1.9-31.69,167.46-31.69,167.46h49.52l12.62-66.34h98.03l-12.61,66.34h50.87l33.1-171.65c.47-2.28.6-2.84.6-4.6,0-6.85-2.44-12.55-7.36-17.1ZM1329.83,536.05h-98.29l9.66-51.56c.49-3.24,2.56-4.87,6.15-4.87h87.98c2.71,0,4.06,1.29,4.06,3.9l-9.56,52.53Z"/>
  <path class="cls-2" d="M1607.2,469.43c.39-1.56.59-3.09.59-4.58,0-6.86-2.46-12.55-7.36-17.1s-11.07-6.82-18.47-6.82h-137.62c-8.71,0-16.48,2.83-23.29,8.47-6.9,5.38-11.91,12.01-13.61,19.98l-27.2,143.2c-.51,2.83-.61,5.34-.61,7.01,0,6.67,2.44,10.14,7.35,14.67,4.92,4.55,11.07,6.82,18.48,6.82h95.03l30.8-33.19-6.51,33.19h61.87l7.55-38.67v-.03h-57.8l57.21-61.67,13.6-71.27ZM1544.27,534.3l-11.93,63.22c-.48,3.25-2.54,4.89-6.14,4.89h-87.99c-2.6,0-3.89-1.32-3.89-3.91l3.47-22.68,17.12-91.33c.5-3.25,2.54-4.87,6.16-4.87h87.97c2.7,0,4.07,1.3,4.07,3.89l-8.84,50.79Z"/>
  <polygon class="cls-2" points="922.51 440.93 907.21 521.87 808.81 521.87 821.17 458.82 824.11 440.93 824.56 440.93 812.13 440.93 805.02 440.93 804.84 440.93 794.1 440.93 793.92 440.93 781.49 440.93 774.62 440.93 736.76 640.77 736.13 641.09 786.29 641.09 801.53 560.43 899.93 560.43 884.69 641.09 934.22 641.09 972.74 440.93 922.51 440.93"/>
  <rect class="cls-1" x="111.89" y="240.96" width="1696.23" height="598.07"/>
</svg>