<?xml version="1.0" encoding="UTF-8"?>
<svg id="Layer_1" data-name="Layer 1" xmlns="http://www.w3.org/2000/svg" viewBox="0 0 1920 1080">
  <defs>
    <style>
      .cls-1 {
        fill: #3f3f3f;
      }

      .cls-1, .cls-2, .cls-3, .cls-4, .cls-5, .cls-6, .cls-7, .cls-8 {
        stroke-width: 0px;
      }

      .cls-2 {
        fill: none;
      }

      .cls-3 {
        fill: #141414;
      }

      .cls-4 {
        fill: #005db8;
      }

      .cls-5 {
        fill: #012f7e;
      }

      .cls-6 {
        fill: #003faa;
      }

      .cls-7 {
        fill: #ddf344;
      }

      .cls-8 {
        fill: #006fdc;
      }
    </style>
  </defs>
  <polygon class="cls-8" points="1016.18 313.48 720.71 484.1 572.99 398.8 868.46 228.19 1016.18 313.48"/>
  <polygon class="cls-4" points="720.71 484.1 720.71 825.32 572.96 740 572.96 398.8 572.99 398.8 720.71 484.1"/>
  <polygon class="cls-5" points="1163.93 398.8 1163.93 740 1016.18 654.71 1016.18 313.48 1163.93 398.8"/>
  <polygon class="cls-6" points="1163.93 740 868.46 910.61 720.71 825.32 1016.18 654.71 1163.93 740"/>
  <polygon class="cls-1" points="1348.18 292.19 1200.43 377.49 978.83 249.53 1126.58 164.21 1348.18 292.19"/>
  <polygon class="cls-3" points="1348.2 292.19 1348.2 548.07 1200.43 633.39 1200.43 377.49 1348.18 292.19 1348.2 292.19"/>
  <polygon class="cls-7" points="1016.18 313.48 1016.18 654.71 720.71 825.32 720.71 484.1 1016.18 313.48"/>
  <rect class="cls-2" x="424.73" y="20.46" width="1070.54" height="1039.08"/>
</svg>