<?xml version="1.0" encoding="UTF-8"?>
<svg id="Layer_1" data-name="Layer 1" xmlns="http://www.w3.org/2000/svg" viewBox="0 0 1920 1080">
  <defs>
    <style>
      .cls-1 {
        fill: none;
      }

      .cls-1, .cls-2 {
        stroke-width: 0px;
      }

      .cls-2 {
        fill: #fff;
      }
    </style>
  </defs>
  <g>
    <path class="cls-2" d="M630.67,702.27l-21.66,113.41-42.27,45.59h-100.18c-5.89,0-10.78-1.8-14.67-5.42-3.9-3.6-5.85-8.06-5.85-13.37,0-1.32.17-2.3.47-3.86l25.44-136.35h41.15l-23.63,125.17c0,2.06,1.03,3.1,3.1,3.1h69.89c2.78,0,4.41-1.29,4.9-3.87l23.74-124.4h39.57Z"/>
    <polygon class="cls-2" points="760.43 830.53 686.62 830.53 798.21 710.36 799.74 702.27 790.69 702.27 784.89 702.27 658.1 702.27 648.23 702.27 642.3 702.27 636.49 733 651.55 733 725.24 733 613.76 853.19 612.26 861.26 627.09 861.26 753.89 861.26 769.7 861.27 775.51 830.53 766.23 830.53 760.43 830.53"/>
    <polygon class="cls-2" points="1139.23 702.27 1129.36 702.27 1123.84 702.27 1123.56 702.27 1115.04 702.27 1114.77 702.27 1104.9 702.27 1099.38 702.27 1099.1 702.27 1081.95 793.28 1021.11 702.27 1013.62 702.27 1011.24 702.27 1005.45 702.27 1003.21 702.27 996.77 702.27 994.54 702.27 986.9 702.27 981.11 702.27 981.43 702.27 951.39 861.26 965.77 861.26 974.56 861.26 990.58 861.26 1007.85 770.16 1069.18 861.26 1083.76 861.26 1092.56 861.26 1108.91 861.26 1138.95 702.27 1139.23 702.27"/>
    <path class="cls-2" d="M1298.33,707.67c-3.89-3.6-8.78-5.41-14.67-5.41h-109.32c-6.92,0-13.09,2.24-18.5,6.74-5.49,4.27-8.91,9.58-10.26,15.91l-.64,3.33c-.64,1.51-25.17,133.03-25.17,133.03h39.34l10.03-52.7h77.87l-10.02,52.7h40.41l26.3-136.35c.37-1.81.47-2.25.47-3.65,0-5.44-1.94-9.97-5.85-13.59ZM1253.15,777.83h-78.08l7.67-40.96c.39-2.58,2.03-3.87,4.89-3.87h69.89c2.15,0,3.22,1.03,3.22,3.1l-7.59,41.73Z"/>
    <path class="cls-2" d="M1473.48,724.91c.31-1.25.48-2.46.48-3.64,0-5.45-1.95-9.98-5.85-13.59-3.9-3.61-8.8-5.42-14.68-5.42h-109.31c-6.92,0-13.09,2.26-18.49,6.75-5.49,4.27-9.47,9.52-10.84,15.86l-21.59,113.75c-.41,2.24-.5,4.24-.5,5.56,0,5.32,1.95,8.07,5.85,11.66,3.91,3.62,8.8,5.42,14.68,5.42h75.48l24.46-26.37-5.16,26.37h49.14l6-30.73h-45.93l45.45-49.01,10.8-56.61ZM1423.5,776.44l-9.47,50.22c-.39,2.58-2.02,3.86-4.89,3.86h-69.89c-2.07,0-3.09-1.03-3.09-3.09l2.77-18.02,13.59-72.54c.39-2.58,2.03-3.88,4.89-3.88h69.89c2.15,0,3.21,1.04,3.21,3.11l-7.01,40.34Z"/>
    <polygon class="cls-2" points="929.58 702.27 917.44 766.56 839.27 766.56 849.08 716.47 851.42 702.27 851.77 702.27 841.91 702.27 836.26 702.27 836.11 702.27 827.58 702.27 827.43 702.27 817.57 702.27 812.11 702.27 782.03 861.01 781.53 861.26 821.38 861.26 833.48 797.19 911.65 797.19 899.54 861.26 938.89 861.26 969.49 702.27 929.58 702.27"/>
  </g>
  <polygon class="cls-2" points="1041.45 299.54 881.51 391.89 801.54 345.72 961.48 253.37 1041.45 299.54"/>
  <polygon class="cls-2" points="881.51 391.89 881.51 576.6 801.53 530.41 801.53 345.72 801.54 345.72 881.51 391.89"/>
  <polygon class="cls-2" points="1121.42 345.72 1121.42 530.41 1041.45 484.24 1041.45 299.54 1121.42 345.72"/>
  <polygon class="cls-2" points="1121.42 530.41 961.48 622.77 881.51 576.6 1041.45 484.24 1121.42 530.41"/>
  <polygon class="cls-2" points="1221.16 288.01 1141.18 334.18 1021.23 264.92 1101.21 218.74 1221.16 288.01"/>
  <polygon class="cls-2" points="1221.17 288.01 1221.17 426.52 1141.18 472.71 1141.18 334.18 1221.16 288.01 1221.17 288.01"/>
  <rect class="cls-1" x="285.2" y="57.89" width="1349.61" height="964.22"/>
</svg>